<?xml version="1.0" encoding="utf-8"?>
<!-- Generator: Adobe Illustrator 27.2.0, SVG Export Plug-In . SVG Version: 6.00 Build 0)  -->
<svg version="1.1" id="Lager_1" xmlns="http://www.w3.org/2000/svg" xmlns:xlink="http://www.w3.org/1999/xlink" x="0px" y="0px"
     viewBox="0 0 512 512" style="enable-background:new 0 0 512 512;" xml:space="preserve">
<g transform="translate(0.000000,512.000000) scale(0.100000,-0.100000)">
	<path d="M763,4255c-35-8-86-26-114-41c-71-39-162-139-191-211l-23-58V2560V1175l23-58c51-124,191-235,327-257c38-6,702-10,1780-10
		c1847,0,1795-1,1896,50c54,28,142,111,173,164c59,101,57,25,54,1517l-3,1364l-23,58c-51,124-191,235-327,257c-38,6-701,10-1785,9
		C1137,4269,814,4266,763,4255z M2350,2560V1280h-750H850v1280v1280h750h750V2560z M3020,3799c-23-44-60-178-60-216v-23h164h163
		l5,65c11,129,87,204,216,212c156,10,232-91,203-271c-7-39-22-93-35-121c-24-51-157-203-504-575l-182-194v-108v-108h353
		c193,0,443-3,555-7l202-6v131v132l-350,2l-351,3l250,274c251,274,298,337,357,471c27,60,29,74,29,185c-1,90-5,129-17,158l-17,37
		h135h134V2560V1280h-176h-176l-55,39l-55,40l39,20c61,31,122,97,156,169c30,63,32,74,32,182c0,105-2,120-28,175
		c-53,113-158,195-300,232c-86,23-289,22-377-1c-90-24-175-72-233-130c-57-57-113-167-123-238l-7-48h160h161l10,43
		c39,154,321,191,399,52c18-31,23-56,23-113c0-84-20-133-72-177c-51-43-86-53-211-61l-117-7v-88v-89h-275h-275v1280v1280h135h135
		L3020,3799z"/>
    <path d="M1538,3208l-338-121v-128c0-71,4-129,8-129c5,0,88,25,185,55s179,55,182,55s5-277,5-615v-615h160h160v810
		c0,642-3,810-12,810C1881,3329,1723,3275,1538,3208z"/>
</g>
</svg>
