<?xml version="1.0" encoding="utf-8"?><!-- Uploaded to: SVG Repo, www.svgrepo.com, Generator: SVG Repo Mixer Tools -->
<svg version="1.1" id="Uploaded to svgrepo.com" xmlns="http://www.w3.org/2000/svg" xmlns:xlink="http://www.w3.org/1999/xlink"
     width="800px" height="800px" viewBox="0 0 32 32" xml:space="preserve">
<style type="text/css">
	.feather_een{fill:#111918;}
	.st0{fill:#0B1719;}
</style>
    <path class="feather_een" d="M25,2H7C5.343,2,4,3.343,4,5v22c0,1.657,1.343,3,3,3h18c1.657,0,3-1.343,3-3V5C28,3.343,26.657,2,25,2z
	 M27,27c0,1.103-0.897,2-2,2H7c-1.103,0-2-0.897-2-2V5c0-1.103,0.897-2,2-2h18c1.103,0,2,0.897,2,2V27z M10,5C8.343,5,7,6.343,7,8
	s1.343,3,3,3s3-1.343,3-3S11.657,5,10,5z M10,10c-1.103,0-2-0.897-2-2c0-1.103,0.897-2,2-2s2,0.897,2,2C12,9.103,11.103,10,10,10z
	 M10,13c-1.657,0-3,1.343-3,3s1.343,3,3,3s3-1.343,3-3S11.657,13,10,13z M10,18c-1.103,0-2-0.897-2-2c0-1.103,0.897-2,2-2
	s2,0.897,2,2C12,17.103,11.103,18,10,18z M10,21c-1.657,0-3,1.343-3,3s1.343,3,3,3s3-1.343,3-3S11.657,21,10,21z M10,26
	c-1.103,0-2-0.897-2-2c0-1.103,0.897-2,2-2s2,0.897,2,2C12,25.103,11.103,26,10,26z M11,16c0,0.552-0.448,1-1,1s-1-0.448-1-1
	c0-0.552,0.448-1,1-1S11,15.448,11,16z M23,6.5C23,6.776,22.776,7,22.5,7h-7C15.224,7,15,6.776,15,6.5S15.224,6,15.5,6h7
	C22.776,6,23,6.224,23,6.5z M23,8.5C23,8.776,22.776,9,22.5,9h-7C15.224,9,15,8.776,15,8.5S15.224,8,15.5,8h7
	C22.776,8,23,8.224,23,8.5z M23,14.5c0,0.276-0.224,0.5-0.5,0.5h-7c-0.276,0-0.5-0.224-0.5-0.5s0.224-0.5,0.5-0.5h7
	C22.776,14,23,14.224,23,14.5z M23,16.5c0,0.276-0.224,0.5-0.5,0.5h-7c-0.276,0-0.5-0.224-0.5-0.5s0.224-0.5,0.5-0.5h7
	C22.776,16,23,16.224,23,16.5z M23,22.5c0,0.276-0.224,0.5-0.5,0.5h-7c-0.276,0-0.5-0.224-0.5-0.5s0.224-0.5,0.5-0.5h7
	C22.776,22,23,22.224,23,22.5z M23,24.5c0,0.276-0.224,0.5-0.5,0.5h-7c-0.276,0-0.5-0.224-0.5-0.5s0.224-0.5,0.5-0.5h7
	C22.776,24,23,24.224,23,24.5z"/>
</svg>