<?xml version="1.0" encoding="utf-8"?>
<!-- Generator: Adobe Illustrator 27.9.1, SVG Export Plug-In . SVG Version: 6.00 Build 0)  -->
<svg version="1.1" id="Lager_2_00000101816525351586927870000011641891985615540626_"
	 xmlns="http://www.w3.org/2000/svg" xmlns:xlink="http://www.w3.org/1999/xlink" x="0px" y="0px" viewBox="0 0 800 800"
	 style="enable-background:new 0 0 800 800;" xml:space="preserve">
<style type="text/css">
	.st0{fill:#FFFFFF;}
</style>
<g>
	<g>
		<path d="M459.9,307.2c0,67,0.2,134.2-0.2,201.3c-0.1,10.4,2.9,17.5,11.4,24.8c43.8,38.2,55.2,95.3,30.1,145.2
			C476.8,727,421.6,756,362.8,751c-56.9-4.7-106.1-43.9-119.3-97.1c-11-45.3,0.2-86,36.9-118.7c10.5-9.3,13.8-18.2,13.8-30.9
			c-0.5-130.2-0.2-260.4-0.2-390.7c0-45.9,24.7-69,74.4-69.7c8.1-0.1,16-0.1,24,0.1c43.1,1.3,67.3,23.6,67.4,63.4
			C460,174.2,459.9,240.7,459.9,307.2z M305.9,310.6c0,67.2-0.2,134.3,0.2,201.5c0.1,11.6-3.1,19.4-13.1,27.6
			c-35.2,28.8-47,66.2-38.5,108.1c10.5,51.2,55.5,86.6,113.6,92c48,4.5,100.4-24.3,121.1-66.4c22.8-46.2,11.3-99.9-30.2-133.9
			c-9.9-8.1-13-16-13-27.7c0.3-133.7,0.3-267.5,0.2-401.1c0-35.7-13.5-50.6-50.4-55.1c-12.1-1.5-24.7-1.4-36.8,0
			c-38.5,4.6-53.2,20.7-53.2,56.8C305.9,178.6,305.9,244.6,305.9,310.6z"/>
		<path d="M420.6,256.8c0,14.8,0,26.7,0,38.5c0,77.3,0.1,154.7-0.1,232c0,10.4,2.2,17.1,12.4,23.8c39.8,25.9,52.8,72.3,32.9,111.8
			c-19.8,39.2-68.4,60.5-113.9,49.9c-44.2-10.4-75.1-49.1-73.1-92.9c1.4-29.1,16.1-52.4,41.7-68.7c10.4-6.6,12.7-13.5,12.5-23.8
			c-0.3-85.3-0.3-170.5,0.1-255.9c0-7,2.8-18.6,7.2-20.1c8.4-2.8,21-2.5,28.5,1.7C384.8,262.2,399.9,266.5,420.6,256.8z
			 M417.4,590.8c-13.5,0-24.6,10-25,22.4c-0.5,12.9,11.5,24.5,25,24.5c13.6,0,25.3-11.6,24.8-24.5
			C441.6,600.6,430.7,590.7,417.4,590.8z"/>
		<path d="M426.9,111.4c-29.8,0-58.5,0-89.5,0C350,98.5,418.5,99.3,426.9,111.4z"/>
		<path d="M339.7,198.5c28.8,0,57.4,0,86.1,0c0.6,1.2,1.1,2.4,1.8,3.6c-3.2,2.1-6.6,6-9.7,5.9c-26.3-0.7-53.1,3.5-79-2.4
			C339.3,203.2,339.5,200.9,339.7,198.5z"/>
		<path d="M429.2,160.4c-32.4,0.5-61.4,0.9-90.4-2.3C352.7,146.4,418.6,147.4,429.2,160.4z"/>
		<path d="M375.7,135.2c12.7-11.7,40.8-11.6,53,0C410.7,135.2,394.7,135.2,375.7,135.2z"/>
		<path d="M401.3,186.7c-7.8-2.3-15.4-4.5-22.9-6.7c7.7-2.1,15.5-5.9,23.2-5.9c8.4,0.1,16.7,3.8,25.1,5.9
			C418.5,182.2,410.2,184.4,401.3,186.7z"/>
		<path d="M375.3,222.4c19.4,0,35.1,0,51.8,0C419.5,235,389.5,236.1,375.3,222.4z"/>
		<path class="st0" d="M417.4,590.8c13.5,0,24.3,9.8,24.7,22.4c0.5,12.8-11.3,24.4-24.8,24.5c-13.5,0-25.3-11.6-25-24.5
			C392.7,600.8,403.9,590.8,417.4,590.8z"/>
	</g>
</g>
</svg>
