<?xml version="1.0" encoding="utf-8"?>
<!-- Generator: Adobe Illustrator 27.2.0, SVG Export Plug-In . SVG Version: 6.00 Build 0)  -->
<svg version="1.1" id="Lager_1" xmlns="http://www.w3.org/2000/svg" xmlns:xlink="http://www.w3.org/1999/xlink" x="0px" y="0px"
     viewBox="0 0 512 512" style="enable-background:new 0 0 512 512;" xml:space="preserve">
<style type="text/css">
	.st0{fill:none;}
</style>
    <path id="canvas_background" class="st0" d="M-1-1h514v514H-1V-1z"/>
    <g>
	<g id="svg_1">
		<path id="svg_2" d="M474.8,256.5c0-9.3,7.9-17.2,17.2-17.2c10.6,0,18.5,7.9,18.5,17.2c0,140.1-113.7,255.2-255.2,255.2
			c-140.1,0-253.8-115-253.8-255.2C1.5,116.4,115.2,2.7,255.3,2.7c67.4,0,130.9,26.4,178.5,72.7l7.9-59.5
			C443.1,5.3,452.3-1.3,461.6,0c10.6,1.3,17.2,10.6,15.9,19.8l-13.2,97.8c-1.3,10.6-10.6,17.2-21.2,15.9l-97.8-13.2
			c-9.3-1.3-15.9-10.6-14.5-21.2c1.3-9.3,10.6-15.9,19.8-14.5l47.6,6.6c-39.7-34.4-89.9-52.9-142.8-52.9
			C135,38.4,37.2,136.2,37.2,256.5S135,474.7,255.3,474.7C377,474.7,474.8,376.8,474.8,256.5L474.8,256.5z"/>
        <path id="svg_3" d="M238.2,130.9c0-10.6,7.9-18.5,17.2-18.5c10.6,0,18.5,7.9,18.5,18.5v119l58.2,56.8c6.6,7.9,6.6,18.5,0,25.1
			c-7.9,7.9-18.5,7.9-26.4,0l-62.1-62.1c-4-4-5.3-7.9-5.3-13.2L238.2,130.9L238.2,130.9z"/>
	</g>
</g>
</svg>
