<?xml version="1.0" encoding="utf-8"?>
<!-- Generator: Adobe Illustrator 27.9.1, SVG Export Plug-In . SVG Version: 6.00 Build 0)  -->
<svg version="1.1" id="Lager_3" xmlns="http://www.w3.org/2000/svg" xmlns:xlink="http://www.w3.org/1999/xlink" x="0px" y="0px"
	 viewBox="0 0 800 800" style="enable-background:new 0 0 800 800;" xml:space="preserve">
<g>
	<g>
		<path d="M190.2,511.7c6.7-27.8,11.3-56.4,20.5-83.1c38.1-111,96.2-210.4,153.9-309.9c14.1-24.2,38.1-24.4,52-0.6
			c57.7,98.7,114.2,198.5,153.4,308.1c42.5,118.7-4.2,239.7-107.5,283.9C334.8,764.7,194.2,661.4,190.2,511.7z M391.9,129.9
			c-3.5,2.8-4.7,3.4-5.3,4.4c-6.5,10.8-12.9,21.5-19.2,32.4C314.5,258.1,264.3,351.1,229.6,453c-10.2,29.9-12.5,60.3-7.2,91.1
			C237,629,302.2,691,381.4,696.4c75.8,5.2,147-48.9,171.9-129.8c16.2-52.7,3.2-101.6-15.6-149.7c-35.2-90.3-80.5-174.5-128.4-257.2
			C403.8,150.1,398.1,140.5,391.9,129.9z"/>
		<path d="M388.2,636.4c-63-3.7-111.2-57-113.9-118.5c-0.5-10.4,0.9-21.7,12.3-20.6c4.9,0.5,11.9,11.1,13,18.1
			c9,54.9,38,87.7,84.8,92.5c9.8,1,19.8,3.3,17.5,15.3C400.6,629.8,390.3,634.4,388.2,636.4z"/>
	</g>
</g>
</svg>
