<?xml version="1.0" encoding="utf-8"?>
<!-- Generator: Adobe Illustrator 27.2.0, SVG Export Plug-In . SVG Version: 6.00 Build 0)  -->
<svg version="1.1" id="Layer_1" xmlns="http://www.w3.org/2000/svg" xmlns:xlink="http://www.w3.org/1999/xlink" x="0px" y="0px"
	 viewBox="0 0 326.7 108.7" style="enable-background:new 0 0 326.7 108.7;" xml:space="preserve">
<style type="text/css">
	.st0{fill:#A81524;}
</style>
<path class="st0" d="M23.4,60.4c3-0.8,6-1.1,9.2-0.7c9,1,16.8,8.4,18.3,17.3c0.6,3.7,0.4,7.6-0.6,10c-1-2.1-1.9-4.3-3-6.4
	c-5.2-9.5-12.9-16.1-23-19.8c-0.3-0.1-0.6-0.1-0.9-0.2C23.4,60.6,23.4,60.4,23.4,60.4z M58.7,25.3c0.8,1.9,1.4,3.9,2.3,5.7
	C66.2,41,74.1,48,84.8,51.9c0.1,0,0.3,0.1,0.4,0.2c0,0.1,0,0.2,0,0.3c-1.7,0.3-3.4,0.7-5,0.7c-11.6,0.6-21.3-7.8-22.5-19.4
	c-0.3-2.8,0.1-5.6,0.8-8.4C58.6,25.3,58.6,25.3,58.7,25.3z M23.4,52.1c2.6-1.1,5.3-2.1,7.7-3.5c9-5.2,15.2-12.7,18.8-22.4
	c0.1-0.3,0.1-0.6,0.2-0.8h0.2c0.3,2.3,0.8,4.6,0.8,6.9c0.1,10.4-8.4,19.7-18.8,20.8c-2.9,0.3-5.7,0.1-8.5-0.7c-0.1,0-0.3,0-0.4,0
	C23.4,52.2,23.4,52.1,23.4,52.1z M191.1,81.8v-2h5.6v-47h-5.6v-2h1c13.3,0,26.7,0,40,0c4.6,0,9.1,0.7,13.2,3.2
	c4.6,2.8,6.4,8.2,4.3,13c-1.1,2.5-3.1,4-5.4,5.2c-3.1,1.4-6.3,2-9.7,2.2c-0.4,0-0.8,0.1-1.3,0.1v1.4c1.2,0.1,2.4,0.2,3.6,0.3
	c3,0.2,5.9,0.8,8.7,2.2c3.8,2,6.1,5,6.2,9.4c0.2,4.6-1.4,8.5-5.5,10.9c-3,1.8-6.3,2.5-9.8,2.8c-2.9,0.2-5.8,0.4-8.6,0.4
	c-11.8,0-23.7,0-35.5,0L191.1,81.8L191.1,81.8z M219.6,79.8c1.2,0,2.3,0.1,3.4,0c2.3-0.2,3.9-1.4,4.5-3.7c0.3-1,0.4-2.1,0.4-3.2
	c0.1-3.2,0-6.4,0-9.6c0-0.8,0-1.5-0.2-2.3c-0.3-1.7-0.9-3.1-2.5-4c-1.8-0.9-3.7-0.8-5.6-0.7C219.6,64.2,219.6,71.9,219.6,79.8
	L219.6,79.8z M219.6,32.9v21.3c1.3,0,2.4,0.1,3.6,0c1.9-0.1,3.5-1.7,3.6-4c0.2-4.4,0.1-8.9,0-13.3c0-1.6-1-2.8-2.5-3.4
	C222.9,32.7,221.3,32.8,219.6,32.9L219.6,32.9z M292.6,67.5h-2.3c-0.3-1.2-0.5-2.4-0.8-3.5c-0.8-2.6-2.2-4.6-4.6-6
	c-1.2-0.7-2.6-1-4.1-0.9v22.5c6.2,0.9,11.6-0.3,15.3-5.8c2.2-3.2,3.8-6.7,4.9-10.3c0.3-0.8,0.6-1.3,1.5-1.1c0.3,0.1,0.6,0,1.1,0
	c-0.1,6.5-0.2,12.9-0.4,19.4h-50.7v-1.9h5.4v-47h-5.4v-2h50c0.1,5.9,0.3,11.8,0.4,17.7h-2.4c-0.7-1.9-1.3-3.7-2.1-5.5
	c-1.3-3-3.2-5.7-5.9-7.7c-2.2-1.7-4.8-2.6-7.6-2.6c-1.4,0-2.8,0-4.3,0v22.2c2.8,0.3,4.9-1,6.7-3c1.7-2,2.4-4.4,2.7-7h2.4
	C292.6,52.6,292.6,60,292.6,67.5z M141.7,58v-1.2V37.4c0-2.5-1.2-4-3.7-4.4c-0.9-0.2-1.9-0.2-2.9-0.2v-1.8h15.3v1.9
	c-0.8,0-1.6,0-2.3,0c-2,0-3,0.8-3.4,2.7c-0.2,1.2-0.3,2.4-0.3,3.6c0,13.8,0,27.6,0,41.4v1.1c-0.3,0-0.6,0-0.9,0c-3.6,0-7.2,0-10.9,0
	c-0.6,0-1-0.2-1.3-0.7c-9.6-13.1-19.2-26.1-28.9-39.2c-0.2-0.2-0.4-0.5-0.8-0.7v0.9c0,10.3,0,20.6,0,30.8c0,1.5,0.3,2.9,0.8,4.3
	c0.5,1.6,1.8,2.4,3.5,2.4h2.3v1.9H93.1c0-0.1-0.1-0.2-0.1-0.3c-0.1-1.7-0.1-1.7,1.5-1.7c1.9,0,3.1-0.7,3.7-2.6
	c0.4-1.4,0.8-2.9,0.8-4.3c0.1-11.8,0-23.6,0-35.4c0-0.5-0.2-1-0.5-1.4c-0.4-0.6-0.9-1.2-1.4-1.8c-0.9-1.1-2.1-1.8-3.6-1.6
	c-0.1,0-0.2,0-0.4,0c-0.1,0-0.1,0-0.2-0.1v-1.8h1c8.8,0,17.6,0,26.5,0c0.7,0,1.1,0.2,1.4,0.8c6.3,8.5,12.6,17,18.9,25.6
	C141.1,57.4,141.3,57.6,141.7,58L141.7,58z M158.9,79.8v-47h-5.5v-1.9h34.4v1.9h-5.6v47h5.6v2h-34.3c0-0.1-0.1-0.1-0.1-0.2
	c-0.2-1.8-0.2-1.8,1.6-1.8H158.9z M58.6,87.2c-2-5.7-1.3-14.7,5.2-21.2c6.2-6.3,15-7.5,21.5-5.4C72.3,65.3,63.4,74.2,58.6,87.2z
	 M62.2,56.3c0,4.3-3.4,7.7-7.7,7.8c-4.3,0-7.8-3.5-7.8-7.7c0-4.3,3.5-7.8,7.8-7.8C58.7,48.6,62.1,52,62.2,56.3z"/>
</svg>
